<svg width="512" height="512" xmlns="http://www.w3.org/2000/svg">

 <g>
  <title>background</title>
  <rect fill="none" id="canvas_background" height="402" width="582" y="-1" x="-1"/>
 </g>
 <g>
  <title>Layer 1</title>
  <path opacity="0.46" id="svg_2" fill-rule="evenodd" clip-rule="evenodd" fill="#f7f7f7" d="m58.442,242.207999l-13.048,-48.208l-19.341,0c3.873,11.386 7.907,22.816 11.784,34.205c5.895,17.121 9.57,30.03 11.236,38.833l0,49.719l18.384,0l0,-49.719l22.111,-73.038l-18.586,0l-12.54,48.208zm124.967,-16.928l0,69.916c-3.672,5.191 -7.15,7.759 -10.464,7.759c-2.225,0 -3.526,-1.314 -3.892,-3.88c-0.2,-0.542 -0.2,-2.56 -0.2,-6.444l0,-67.351l-16.523,0l0,72.337c0,6.457 0.556,10.828 1.471,13.601c1.653,4.633 5.336,6.799 10.671,6.799c6.046,0 12.34,-3.674 18.937,-11.237l0,9.978l16.578,0l0,-91.477l-16.578,0l0,-0.001zm-69.205,-1.1c-8.257,0 -14.711,3.119 -19.292,9.375c-3.526,4.622 -5.193,11.771 -5.193,21.549l0,32.037c0,9.722 1.667,16.934 5.193,21.511c4.582,6.238 11.036,9.365 19.292,9.365c8.306,0 14.756,-3.127 19.341,-9.365c3.475,-4.577 5.144,-11.789 5.144,-21.511l0,-32.037c0,-9.777 -1.669,-16.927 -5.144,-21.549c-4.585,-6.256 -11.035,-9.375 -19.341,-9.375zm7.907,66.079c0,8.465 -2.563,12.696 -7.907,12.696c-5.344,0 -7.91,-4.231 -7.91,-12.696l0,-38.481c0,-8.463 2.566,-12.684 7.91,-12.684c5.345,0 7.907,4.221 7.907,12.684l0,38.481z"/>
  <path id="svg_4" fill-rule="evenodd" clip-rule="evenodd" fill="#A62423" d="m441.2,239.52c-5.486,0 -8.222,4.178 -8.222,12.55l0,8.384l16.4,0l0,-8.384c0.001,-8.373 -2.748,-12.55 -8.178,-12.55zm-60.864,0c-2.696,0 -5.432,1.283 -8.177,3.989l0,55.172c2.745,2.742 5.48,4.036 8.177,4.036c4.731,0 7.14,-4.036 7.14,-12.214l0,-38.628c0,-8.178 -2.409,-12.355 -7.14,-12.355zm100.963,-47.949c-3.319,-14.435 -15.128,-25.081 -29.337,-26.669c-31.583,-3.528 -63.526,-3.762 -95.37,-3.762c-2.088,0 -4.178,0.002 -6.265,0.002c-2.088,0 -4.175,-0.002 -6.264,-0.002c-31.843,0 -63.789,0.233 -95.37,3.762c-14.21,1.588 -26.012,12.234 -29.332,26.669c-4.724,20.558 -4.779,42.993 -4.779,64.158l0,1.519c0.002,20.719 0.113,42.569 4.725,62.638c3.32,14.434 15.121,25.08 29.331,26.667c31.618,3.534 63.595,3.763 95.475,3.763c2.053,0 4.108,0 6.159,-0.002c2.054,0.002 4.104,0.002 6.158,0.002c31.879,0 63.86,-0.229 95.476,-3.763c14.21,-1.587 26.018,-12.233 29.338,-26.667c4.657,-20.268 4.75,-42.359 4.752,-63.261l0,-0.896c0,-21.165 0.027,-43.6 -4.697,-64.158zm-189.299,20.424l-19.642,0l0,104.385l-18.248,0l0,-104.385l-19.292,0l0,-17.104l57.182,0l0,17.104zm49.56,104.385l-16.406,0l0,-9.874c-6.52,7.479 -12.716,11.12 -18.746,11.12c-5.284,0 -8.927,-2.146 -10.568,-6.729c-0.893,-2.742 -1.444,-7.073 -1.444,-13.462l0,-71.583l16.396,0l0,66.65c0,3.844 0,5.838 0.152,6.38c0.399,2.541 1.647,3.835 3.839,3.835c3.292,0 6.73,-2.534 10.371,-7.672l0,-69.193l16.406,0l0,90.528zm62.31,-27.173c0,8.378 -0.56,14.41 -1.646,18.248c-2.2,6.729 -6.584,10.171 -13.113,10.171c-5.831,0 -11.471,-3.24 -16.951,-10.021l0,8.774l-16.4,0l0,-121.488l16.399,0l0,39.68c5.296,-6.518 10.919,-9.813 16.951,-9.813c6.529,0 10.913,3.436 13.113,10.215c1.087,3.643 1.646,9.626 1.646,18.192l0,36.042l0.001,0zm61.901,-15.103l-32.793,0l0,16.053c0,8.378 2.735,12.561 8.37,12.561c4.044,0 6.392,-2.195 7.329,-6.584c0.149,-0.894 0.36,-4.529 0.36,-11.108l16.733,0l0,2.396c0,5.276 -0.195,8.925 -0.349,10.561c-0.547,3.643 -1.835,6.931 -3.833,9.832c-4.534,6.572 -11.264,9.813 -19.83,9.813c-8.58,0 -15.11,-3.088 -19.853,-9.272c-3.486,-4.53 -5.274,-11.667 -5.274,-21.286l0,-31.702c0,-9.674 1.59,-16.751 5.073,-21.329c4.744,-6.196 11.272,-9.279 19.643,-9.279c8.229,0 14.76,3.083 19.354,9.279c3.435,4.578 5.069,11.655 5.069,21.329l0,18.736l0.001,0z"/>
 </g>
</svg>